
<svg width="512" height="512" xmlns="http://www.w3.org/2000/svg" fill="none">

 <g>
  <title>Layer 1</title>
  <g id="svg_5">
   <path id="svg_1" fill="#87C527" d="m193.2385,27.8044c19.1653,-10.70403 41.2509,-16.80436 64.7615,-16.80436c23.5106,0 45.5962,6.10033 64.7615,16.80436l14.0201,-14.02181c3.7107,-3.71013 9.7261,-3.71013 13.4368,0c3.7088,3.70994 3.7088,9.72496 0,13.4349l-11.2556,11.2556c31.6426,24.31297 52.0372,62.53812 52.0372,105.52695l-266,0c0,-42.98883 20.3946,-81.21398 52.0372,-105.52695l-11.2556,-11.2556c-3.7088,-3.70994 -3.7088,-9.72496 0,-13.4349c3.7107,-3.71013 9.7261,-3.71013 13.4368,0l14.0201,14.02181zm26.7615,59.19564c0,10.49332 -8.5063,19 -19,19c-10.4937,0 -19,-8.50668 -19,-19c0,-10.49332 8.5063,-19 19,-19c10.4937,0 19,8.50668 19,19zm95,19c10.4937,0 19,-8.50668 19,-19c0,-10.49332 -8.5063,-19 -19,-19c-10.4937,0 -19,8.50668 -19,19c0,10.49332 8.5063,19 19,19z" clip-rule="evenodd" fill-rule="evenodd"/>
   <path id="svg_2" fill="#87C527" d="m49,191.50004c0,-15.7396 12.75983,-28.5 28.5,-28.5c15.74017,0 28.5,12.7604 28.5,28.5l0,114c0,15.7396 -12.75983,28.5 -28.5,28.5c-15.74017,0 -28.5,-12.7604 -28.5,-28.5l0,-114z"/>
   <path id="svg_3" fill="#87C527" d="m182,410.00004l0,66.5c0,15.7396 12.7604,28.5 28.5,28.5c15.7396,0 28.5,-12.7604 28.5,-28.5l0,-66.5l38,0l0,66.5c0,15.7396 12.7604,28.5 28.5,28.5c15.7396,0 28.5,-12.7604 28.5,-28.5l0,-66.5l19,0c20.9874,0 38,-17.0126 38,-38l0,-209l-266,0l0,209c0,20.9874 17.01317,38 38,38l19,0z"/>
   <path id="svg_4" fill="#87C527" d="m410,191.50004c0,-15.7396 12.7604,-28.5 28.5,-28.5c15.7396,0 28.5,12.7604 28.5,28.5l0,114c0,15.7396 -12.7604,28.5 -28.5,28.5c-15.7396,0 -28.5,-12.7604 -28.5,-28.5l0,-114z"/>
  </g>
 </g>
</svg>