
<svg width="512" height="512" xmlns="http://www.w3.org/2000/svg" fill="#000000" version="1.1" xml:space="preserve">
 <g>
  <title>Layer 1</title>
  <g id="svg_1">
   <path d="m164.232,404.955l0,-153.793l11.929,0c5.091,0 9.212,-4.361 9.212,-9.74l0,-5.682c0,-5.38 -4.121,-9.738 -9.212,-9.738l-11.929,0l-56.154,0l-11.928,0c-5.089,0 -9.213,4.358 -9.213,9.738l0,5.682c0,5.379 4.124,9.74 9.213,9.74l11.929,0l0,153.794l56.153,0l0,-0.001z" id="svg_2" fill="#aaaaaa"/>
   <path d="m283.078,404.955l0,-153.793l11.929,0c5.09,0 9.212,-4.361 9.212,-9.74l0,-5.682c0,-5.38 -4.122,-9.738 -9.212,-9.738l-11.929,0l-56.153,0l-11.929,0c-5.089,0 -9.213,4.358 -9.213,9.738l0,5.682c0,5.379 4.124,9.74 9.213,9.74l11.929,0l0,153.794l56.153,0l0,-0.001z" id="svg_3" fill="#aaaaaa"/>
   <path d="m401.925,404.955l0,-153.793l11.929,0c5.09,0 9.212,-4.361 9.212,-9.74l0,-5.682c0,-5.38 -4.122,-9.738 -9.212,-9.738l-11.929,0l-56.153,0l-11.929,0c-5.089,0 -9.213,4.358 -9.213,9.738l0,5.682c0,5.379 4.124,9.74 9.213,9.74l11.929,0l0,153.794l56.153,0l0,-0.001z" id="svg_4" fill="#aaaaaa"/>
   <path d="m483.206,459.001l-6.205,0l0,-20.016c0,-9.383 -7.521,-16.984 -16.795,-16.984l-410.412,0c-9.276,0 -16.793,7.602 -16.793,16.984l0,20.016l-6.207,0c-9.276,0 -16.793,7.602 -16.793,16.984l0,23.016l490,0l0,-23.016c0,-9.382 -7.52,-16.984 -16.795,-16.984z" id="svg_5" fill="#aaaaaa"/>
   <path d="m30.001,210.001l450,0c8.691,0 16.388,-5.613 19.043,-13.889c2.656,-8.275 -0.336,-17.318 -7.404,-22.376l-225,-161c-3.481,-2.49 -7.56,-3.735 -11.639,-3.735c-4.079,0 -8.158,1.245 -11.639,3.735l-225,161c-7.068,5.058 -10.061,14.1 -7.404,22.376c2.656,8.276 10.352,13.889 19.043,13.889z" id="svg_6" fill="#aaaaaa"/>
  </g>
 </g>

</svg>