
<svg width="512" height="512" xmlns="http://www.w3.org/2000/svg" fill="none">

 <g>
  <title>Layer 1</title>
  <g stroke="null" id="svg_3">
   <path stroke="null" id="svg_1" fill="#aaaaaa" d="m274.95203,410.37204c0,12.07483 -9.78798,21.8628 -21.8628,21.8628c-12.07483,0 -21.8628,-9.78798 -21.8628,-21.8628c0,-12.07483 9.78798,-21.8628 21.8628,-21.8628c12.07483,0 21.8628,9.78798 21.8628,21.8628z"/>
   <path stroke="null" id="svg_2" fill="#aaaaaa" d="m192.62043,16.84159l1.06341,0.00022c0.16594,-0.00022 0.3321,-0.00022 0.49803,0l117.81449,0c0.16616,-0.00022 0.33231,-0.00022 0.49847,0l1.06253,-0.00022c0.52471,0 1.03192,0 1.52821,0.00022l3.59206,0c0.35855,0 0.71491,0.00853 1.06909,0.02558c1.88457,0.02733 3.56145,0.08264 5.14213,0.19523c43.40204,3.09009 77.92996,37.61801 81.01917,81.01961c0.223,3.1196 0.22081,6.61262 0.22081,11.32996l0,261.86915c0,17.8947 0,32.66521 -0.99694,44.68975c-1.03848,12.49022 -3.2663,23.966 -8.84788,34.71376c-8.29693,15.97296 -21.32061,28.99663 -37.29357,37.29357c-10.74775,5.58157 -22.22354,7.80939 -34.71376,8.84788c-12.02454,0.99694 -26.79286,0.99694 -44.68757,0.99694l-52.99981,0c-17.89339,0 -32.66281,0 -44.68669,-0.99694c-12.49131,-1.03848 -23.96579,-3.2663 -34.71441,-8.84788c-15.97231,-8.29693 -28.99554,-21.32061 -37.29269,-37.29357c-5.58332,-10.74775 -7.81027,-22.22354 -8.84766,-34.71376c-0.99869,-12.02454 -0.99847,-26.79505 -0.99804,-44.68975l-0.00022,-261.86893c-0.00066,-4.71734 -0.00109,-8.21058 0.22103,-11.33018c3.09009,-43.4016 37.61801,-77.92952 81.01961,-81.01961c1.5809,-0.11259 3.25756,-0.16791 5.14082,-0.19523c0.35461,-0.01705 0.7112,-0.02558 1.06997,-0.02558l3.59271,0c0.49454,-0.00022 1.00328,-0.00022 1.52668,-0.00022zm0.81636,43.72582c-5.88809,0 -7.68587,0.01377 -9.04114,0.11041c-21.7008,1.54504 -38.96476,18.80901 -40.50981,40.50981c-0.09663,1.35528 -0.11041,3.15305 -0.11041,9.04114l0,260.13434c0,19.0425 0.01749,31.98747 0.84806,41.9897c0.80871,9.73769 2.27373,14.70929 4.07479,18.17673c4.14847,7.9843 10.66008,14.49722 18.64635,18.6446c3.467,1.80149 8.43817,3.2663 18.17673,4.07523c10.00026,0.83079 22.94567,0.84828 41.98839,0.84828l51.15896,0c19.0425,0 31.98747,-0.01749 41.9897,-0.84828c9.73769,-0.80892 14.70929,-2.27373 18.17673,-4.07523c7.9843,-4.14737 14.49722,-10.6603 18.6446,-18.6446c1.80149,-3.46744 3.2663,-8.43904 4.07523,-18.17673c0.83079,-10.00223 0.84828,-22.9472 0.84828,-41.9897l0,-260.13434c0,-5.88809 -0.01312,-7.68587 -0.10931,-9.04114c-1.5457,-21.7008 -18.81076,-38.96476 -40.51177,-40.50981c-1.35331,-0.09663 -3.15262,-0.11041 -9.04027,-0.11041c-1.46262,0 -1.62659,0.0035 -1.73591,0.00787c-2.80937,0.10647 -5.47007,1.29122 -7.42679,3.30806c-0.07871,0.07914 -0.19021,0.1983 -1.16747,1.2851l-10.68435,11.87085l-0.27329,0.30149c-0.12899,0.13992 -0.38041,0.41255 -0.7018,0.73568c-0.68431,0.68737 -1.913,1.84763 -3.65983,2.99848c-2.09446,1.37867 -4.3988,2.40513 -6.82338,3.03871c-2.0245,0.52886 -3.71012,0.66682 -4.67645,0.7147c-0.45693,0.02252 -0.8286,0.02755 -1.01662,0.0293l-0.40665,0.00175l-42.15804,0l-0.40883,-0.00175c-0.18802,-0.00175 -0.55969,-0.00678 -1.01443,-0.0293c-0.96852,-0.04788 -2.65414,-0.18583 -4.67864,-0.7147c-2.42458,-0.63358 -4.72892,-1.66004 -6.82338,-3.03871c-1.74684,-1.15086 -2.97553,-2.31112 -3.65983,-2.99848c-0.3192,-0.32313 -0.57281,-0.59576 -0.7018,-0.73568l-0.27329,-0.30149l-10.68326,-11.87085c-0.97792,-1.0868 -1.0903,-1.20595 -1.16726,-1.2851c-1.95847,-2.01684 -4.61852,-3.20159 -7.42767,-3.30806c-0.11041,-0.00437 -0.27416,-0.00787 -1.73613,-0.00787z" clip-rule="evenodd" fill-rule="evenodd"/>
  </g>
 </g>
</svg>
