
<svg width="512" height="512" xmlns="http://www.w3.org/2000/svg" fill="none">

 <g>
  <title>Layer 1</title>
  <path stroke="null" id="svg_1" fill="#aaaaaa" d="m13,160c0,-53.01936 42.98064,-96 96,-96l288,0c53.0184,0 96,42.98064 96,96l0,24l0,144l0,24c0,53.0184 -42.9816,96 -96,96l-288,0c-53.01936,0 -96,-42.9816 -96,-96l0,-192zm384,-48c26.5104,0 48,21.49032 48,48l-48,0c-53.0184,0 -96,42.98064 -96,96c0,53.0184 42.9816,96 96,96l48,0c0,26.5104 -21.4896,48 -48,48l-288,0c-26.50968,0 -48,-21.4896 -48,-48l0,-192c0,-26.50968 21.49032,-48 48,-48l288,0zm0,96l48,0l0,96l-48,0c-26.5104,0 -48,-21.4896 -48,-48c0,-26.5104 21.4896,-48 48,-48zm0,72c13.2552,0 24,-10.7448 24,-24c0,-13.2552 -10.7448,-24 -24,-24c-13.2552,0 -24,10.7448 -24,24c0,13.2552 10.7448,24 24,24z" clip-rule="evenodd" fill-rule="evenodd"/>
 </g>
</svg>